<svg width="1145" height="224" fill="none" xmlns="http://www.w3.org/2000/svg"><path fill-rule="evenodd" clip-rule="evenodd" d="M817.77 101.197c-7.557 0-14.601-1.211-21.131-3.634-6.437-2.516-12.035-6.057-16.793-10.623-4.758-4.566-8.49-9.924-11.195-16.074-2.612-6.15-3.919-12.906-3.919-20.267 0-7.362 1.307-14.118 3.919-20.268 2.705-6.15 6.437-11.508 11.195-16.074 4.851-4.566 10.496-8.06 16.933-10.483C803.216 1.258 810.26 0 817.91 0c8.49 0 16.14 1.49 22.95 4.473 6.904 2.889 12.688 7.175 17.353 12.86L843.659 30.75c-3.359-3.821-7.091-6.663-11.195-8.527-4.105-1.957-8.583-2.935-13.435-2.935-4.571 0-8.769.745-12.594 2.236-3.825 1.491-7.137 3.635-9.936 6.43-2.799 2.796-4.991 6.104-6.577 9.924-1.493 3.82-2.239 8.06-2.239 12.72 0 4.659.746 8.899 2.239 12.72 1.586 3.82 3.778 7.128 6.577 9.923 2.799 2.796 6.111 4.939 9.936 6.43 3.825 1.49 8.023 2.236 12.594 2.236 4.852 0 9.33-.931 13.435-2.795 4.104-1.957 7.836-4.892 11.195-8.806l14.554 13.418c-4.665 5.685-10.449 10.018-17.353 13-6.81 2.981-14.507 4.472-23.09 4.472Zm304.84-27.675V99.52H1145V1.677h-42.26c-8.59 0-16.05 1.445-22.39 4.333-6.35 2.889-11.29 7.082-14.84 12.58-3.45 5.405-5.17 11.928-5.17 19.569 0 7.361 1.63 13.698 4.89 19.01 3.27 5.31 7.98 9.364 14.14 12.16.55.252 1.12.494 1.7.724l-20.45 29.467h23.93l17.31-25.998h20.75Zm0-17.892V20.128h-19.31c-6.44 0-11.38 1.49-14.84 4.472-3.35 2.982-5.03 7.408-5.03 13.28 0 5.683 1.63 10.063 4.89 13.138 3.27 3.075 8.07 4.612 14.42 4.612h19.87ZM261.711 224c-7.744 0-14.927-1.258-21.551-3.774-6.531-2.516-12.222-6.057-17.073-10.623-4.758-4.566-8.49-9.924-11.195-16.074-2.612-6.15-3.918-12.859-3.918-20.128 0-7.268 1.306-13.977 3.918-20.127 2.705-6.15 6.484-11.508 11.335-16.074 4.851-4.567 10.542-8.107 17.073-10.623 6.53-2.516 13.621-3.774 21.271-3.774 7.743 0 14.834 1.258 21.271 3.774 6.53 2.516 12.175 6.056 16.933 10.623 4.851 4.566 8.629 9.924 11.335 16.074 2.705 6.057 4.058 12.766 4.058 20.127 0 7.269-1.353 14.024-4.058 20.268-2.706 6.15-6.484 11.508-11.335 16.074-4.758 4.473-10.403 7.967-16.933 10.483-6.437 2.516-13.481 3.774-21.131 3.774Zm-.14-19.289c4.385 0 8.396-.745 12.035-2.236 3.731-1.491 6.997-3.635 9.796-6.43 2.798-2.796 4.944-6.104 6.437-9.924 1.586-3.821 2.379-8.06 2.379-12.72 0-4.659-.793-8.899-2.379-12.719-1.493-3.821-3.639-7.129-6.437-9.924-2.706-2.796-5.925-4.939-9.656-6.43-3.732-1.491-7.79-2.236-12.175-2.236-4.385 0-8.443.745-12.175 2.236a29.21 29.21 0 0 0-9.656 6.43c-2.799 2.795-4.991 6.103-6.577 9.924-1.493 3.82-2.239 8.06-2.239 12.719 0 4.566.746 8.806 2.239 12.72 1.586 3.82 3.732 7.128 6.437 9.924 2.799 2.795 6.064 4.939 9.796 6.43 3.732 1.491 7.79 2.236 12.175 2.236Zm535.068 15.655c6.53 2.423 13.574 3.634 21.131 3.634 8.583 0 16.28-1.491 23.09-4.473 6.904-2.982 12.688-7.315 17.353-12.999l-14.554-13.418c-3.359 3.913-7.091 6.849-11.195 8.806-4.105 1.863-8.583 2.795-13.435 2.795-4.571 0-8.769-.745-12.594-2.236-3.825-1.491-7.137-3.635-9.936-6.43-2.799-2.796-4.991-6.104-6.577-9.924-1.493-3.821-2.239-8.06-2.239-12.72 0-4.659.746-8.899 2.239-12.719 1.586-3.821 3.778-7.129 6.577-9.924 2.799-2.796 6.111-4.939 9.936-6.43 3.825-1.491 8.023-2.236 12.594-2.236 4.852 0 9.33.978 13.435 2.935 4.104 1.864 7.836 4.706 11.195 8.526l14.554-13.418c-4.665-5.684-10.449-9.971-17.353-12.86-6.81-2.981-14.46-4.472-22.95-4.472-7.65 0-14.694 1.258-21.131 3.774-6.437 2.422-12.082 5.917-16.933 10.483-4.758 4.566-8.49 9.924-11.195 16.074-2.612 6.15-3.919 12.906-3.919 20.267 0 7.362 1.307 14.118 3.919 20.268 2.705 6.15 6.437 11.508 11.195 16.074 4.758 4.566 10.356 8.107 16.793 10.623Zm76.349 1.957V124.48h74.029v18.171h-51.498v21.246h45.48v17.611h-45.48v22.644h53.317v18.171h-75.848Zm94.159-97.843v97.843h46.463c12.59 0 22.34-2.703 29.25-8.107 6.9-5.405 10.35-12.953 10.35-22.644 0-9.411-3.12-16.587-9.38-21.525-6.15-4.939-15.16-7.408-27-7.408h-27.152v-20.128h56.532V124.48h-79.063Zm45.203 81.07h-22.672v-26.278h22.672c11.94 0 17.91 4.286 17.91 12.859 0 4.38-1.54 7.734-4.62 10.064-3.08 2.236-7.51 3.355-13.29 3.355Zm110.26-9.226v25.999H1145V124.48h-42.26c-8.59 0-16.05 1.444-22.39 4.333-6.35 2.889-11.29 7.082-14.84 12.58-3.45 5.404-5.17 11.927-5.17 19.568 0 7.362 1.63 13.698 4.89 19.01 3.27 5.311 7.98 9.365 14.14 12.16.55.253 1.12.494 1.7.724l-20.45 29.468h23.93l17.31-25.999h20.75Zm0-53.394h-19.31c-6.44 0-11.38 1.491-14.84 4.473-3.35 2.982-5.03 7.408-5.03 13.279 0 5.684 1.63 10.064 4.89 13.139 3.27 3.075 8.07 4.612 14.42 4.612h19.87V142.93Zm-491.648 79.393V124.48h22.531v32.148h24.909c11.849 0 20.991 2.656 27.429 7.967 6.437 5.219 9.655 13.093 9.655 23.622 0 11.183-3.591 19.662-10.775 25.44-7.09 5.777-16.933 8.666-29.527 8.666h-44.222Zm22.531-16.773h20.431c5.784 0 10.356-1.445 13.714-4.333 3.359-2.889 5.038-7.082 5.038-12.58 0-5.405-1.679-9.272-5.038-11.602-3.265-2.422-7.836-3.634-13.714-3.634h-20.431v32.149Zm-122.43-81.07v97.843h22.671v-26.977h19.731c8.77 0 16.327-1.398 22.671-4.193 6.344-2.889 11.242-6.989 14.694-12.3 3.451-5.312 5.177-11.602 5.177-18.87 0-7.362-1.726-13.698-5.177-19.01-3.452-5.311-8.35-9.365-14.694-12.16-6.344-2.889-13.901-4.333-22.671-4.333h-42.402Zm22.671 52.416h18.472c6.997 0 12.221-1.491 15.673-4.473 3.452-2.982 5.178-7.129 5.178-12.44 0-5.405-1.726-9.598-5.178-12.58-3.452-2.982-8.676-4.473-15.673-4.473h-18.472v33.966Zm-116.83 45.427V124.48h74.029v18.171h-51.498v21.246h45.48v17.611h-45.48v22.644h53.317v18.171h-75.848ZM332.632 124.48v97.843h48.279c12.408 0 21.831-2.423 28.268-7.269 6.531-4.938 9.796-11.694 9.796-20.267 0-8.293-3.032-14.63-9.096-19.01-2.614-1.887-5.688-3.369-9.22-4.443a29.396 29.396 0 0 0 4.742-2.825c5.971-4.473 8.956-10.716 8.956-18.73 0-8.107-3.172-14.35-9.516-18.73-6.344-4.379-15.207-6.569-26.589-6.569h-45.62Zm47.44 81.07h-24.91v-24.741h24.91c5.224 0 9.189 1.025 11.895 3.075 2.705 1.957 4.058 4.986 4.058 9.086 0 4.286-1.353 7.455-4.058 9.505-2.706 2.05-6.671 3.075-11.895 3.075Zm-3.779-40.535h-21.131v-23.762h21.131c4.945 0 8.677 1.025 11.196 3.075 2.518 1.957 3.778 4.892 3.778 8.806 0 3.914-1.26 6.895-3.778 8.945-2.519 1.957-6.251 2.936-11.196 2.936ZM113.565 124.48v97.843h22.67v-26.977h19.732c8.77 0 16.326-1.398 22.67-4.193 6.344-2.889 11.242-6.989 14.694-12.3 3.452-5.312 5.178-11.602 5.178-18.87 0-7.362-1.726-13.698-5.178-19.01-3.452-5.311-8.35-9.365-14.694-12.16-6.344-2.889-13.9-4.333-22.67-4.333h-42.402Zm22.67 52.416h18.472c6.997 0 12.222-1.491 15.674-4.473 3.452-2.982 5.178-7.129 5.178-12.44 0-5.405-1.726-9.598-5.178-12.58-3.452-2.982-8.677-4.473-15.674-4.473h-18.472v33.966ZM0 222.323V124.48h89.282v97.843h-22.53V142.93H22.53v79.393H0ZM967.147 99.52V1.677h79.063v18.031h-56.532v20.128h27.152c11.84 0 20.85 2.47 27 7.408 6.26 4.939 9.38 12.114 9.38 21.525 0 9.691-3.45 17.24-10.35 22.644-6.91 5.405-16.66 8.107-29.25 8.107h-46.463Zm22.531-16.773h22.672c5.78 0 10.21-1.118 13.29-3.355 3.08-2.33 4.62-5.684 4.62-10.063 0-8.573-5.97-12.86-17.91-12.86h-22.672v26.278Zm-116.69-81.07V99.52h75.848V81.35h-53.317V58.705h45.48V41.094h-45.48V19.848h51.498V1.678h-74.029Zm-242.026 0V99.52h44.222c12.594 0 22.437-2.889 29.527-8.666 7.184-5.778 10.775-14.257 10.775-25.44 0-10.529-3.218-18.403-9.655-23.621-6.438-5.312-15.58-7.967-27.429-7.967h-24.909V1.677h-22.531Zm42.962 81.07h-20.431V50.599h20.431c5.878 0 10.449 1.211 13.714 3.634 3.359 2.33 5.038 6.197 5.038 11.601 0 5.498-1.679 9.691-5.038 12.58-3.358 2.889-7.93 4.333-13.714 4.333ZM531.063 99.52V1.677h42.402c8.77 0 16.327 1.445 22.671 4.333 6.344 2.796 11.242 6.85 14.694 12.16 3.451 5.312 5.177 11.649 5.177 19.01 0 7.269-1.726 13.558-5.177 18.87-3.452 5.311-8.35 9.411-14.694 12.3-6.344 2.796-13.901 4.193-22.671 4.193h-19.731V99.52h-22.671Zm41.143-45.427h-18.472V20.128h18.472c6.997 0 12.221 1.49 15.673 4.472s5.178 7.175 5.178 12.58c0 5.312-1.726 9.458-5.178 12.44-3.452 2.982-8.676 4.473-15.673 4.473ZM436.904 1.677V99.52h75.848V81.35h-53.317V58.705h45.48V41.094h-45.48V19.848h51.498V1.678h-74.029ZM332.632 99.52V1.677h45.62c11.382 0 20.245 2.19 26.589 6.57 6.344 4.38 9.516 10.623 9.516 18.73 0 8.013-2.985 14.257-8.956 18.73a29.397 29.397 0 0 1-4.742 2.825c3.532 1.074 6.606 2.555 9.22 4.443 6.064 4.38 9.096 10.716 9.096 19.01 0 8.572-3.265 15.328-9.796 20.267-6.437 4.845-15.86 7.268-28.268 7.268h-48.279Zm22.53-16.773h24.91c5.224 0 9.189-1.025 11.895-3.075 2.705-2.05 4.058-5.218 4.058-9.505 0-4.1-1.353-7.128-4.058-9.085-2.706-2.05-6.671-3.075-11.895-3.075h-24.91v24.74Zm0-40.535h21.131c4.945 0 8.677-.978 11.196-2.935 2.518-2.05 3.778-5.032 3.778-8.946 0-3.913-1.26-6.849-3.778-8.806-2.519-2.05-6.251-3.075-11.196-3.075h-21.131v23.762ZM240.16 97.423c6.624 2.516 13.807 3.774 21.551 3.774 7.65 0 14.694-1.258 21.131-3.774 6.53-2.516 12.175-6.01 16.933-10.483 4.851-4.566 8.629-9.924 11.335-16.074 2.705-6.243 4.058-12.999 4.058-20.267 0-7.362-1.353-14.071-4.058-20.128-2.706-6.15-6.484-11.508-11.335-16.074-4.758-4.566-10.403-8.107-16.933-10.623C276.405 1.258 269.314 0 261.571 0c-7.65 0-14.741 1.258-21.271 3.774-6.531 2.516-12.222 6.057-17.073 10.623-4.851 4.566-8.63 9.924-11.335 16.074-2.612 6.15-3.918 12.86-3.918 20.128 0 7.268 1.306 13.977 3.918 20.127 2.705 6.15 6.437 11.508 11.195 16.075 4.851 4.566 10.542 8.106 17.073 10.622Zm33.446-17.751c-3.639 1.49-7.65 2.236-12.035 2.236s-8.443-.745-12.175-2.236c-3.732-1.491-6.997-3.634-9.796-6.43-2.705-2.795-4.851-6.103-6.437-9.924-1.493-3.913-2.239-8.153-2.239-12.72 0-4.658.746-8.898 2.239-12.719 1.586-3.82 3.778-7.128 6.577-9.924a29.216 29.216 0 0 1 9.656-6.43c3.732-1.49 7.79-2.236 12.175-2.236 4.385 0 8.443.745 12.175 2.236 3.731 1.491 6.95 3.635 9.656 6.43 2.798 2.796 4.944 6.104 6.437 9.924 1.586 3.82 2.379 8.06 2.379 12.72 0 4.659-.793 8.899-2.379 12.72-1.493 3.82-3.639 7.128-6.437 9.923-2.799 2.796-6.065 4.939-9.796 6.43ZM113.565 99.52V1.677h42.402c8.77 0 16.326 1.445 22.67 4.333 6.344 2.796 11.242 6.85 14.694 12.16 3.452 5.312 5.178 11.649 5.178 19.01 0 7.269-1.726 13.558-5.178 18.87-3.452 5.311-8.35 9.411-14.694 12.3-6.344 2.796-13.9 4.193-22.67 4.193h-19.732V99.52h-22.67Zm41.142-45.427h-18.472V20.128h18.472c6.997 0 12.222 1.49 15.674 4.472s5.178 7.175 5.178 12.58c0 5.312-1.726 9.458-5.178 12.44-3.452 2.982-8.677 4.473-15.674 4.473ZM0 1.677V99.52h22.53V20.128h44.222V99.52h22.53V1.677H0Z" fill="#fff" fill-opacity=".05"/></svg>