<svg width="1145" height="224" viewBox="0 0 1145 224" fill="none" xmlns="http://www.w3.org/2000/svg">
<path fill-rule="evenodd" clip-rule="evenodd" d="M817.77 101.197C810.213 101.197 803.169 99.986 796.639 97.5632C790.202 95.0472 784.604 91.5063 779.846 86.9403C775.088 82.3743 771.356 77.0162 768.651 70.8661C766.039 64.716 764.732 57.9602 764.732 50.5987C764.732 43.2372 766.039 36.4814 768.651 30.3313C771.356 24.1811 775.088 18.8231 779.846 14.2571C784.697 9.69109 790.342 6.1967 796.779 3.77393C803.216 1.25797 810.26 0 817.91 0C826.4 0 834.05 1.49094 840.86 4.47281C847.764 7.3615 853.548 11.6479 858.213 17.3321L843.659 30.7506C840.3 26.93 836.568 24.0879 832.464 22.2243C828.359 20.2674 823.881 19.289 819.029 19.289C814.458 19.289 810.26 20.0345 806.435 21.5254C802.61 23.0163 799.298 25.1596 796.499 27.9551C793.7 30.7506 791.508 34.0586 789.922 37.8791C788.429 41.6996 787.683 45.9395 787.683 50.5987C787.683 55.2579 788.429 59.4977 789.922 63.3182C791.508 67.1388 793.7 70.4468 796.499 73.2423C799.298 76.0378 802.61 78.181 806.435 79.672C810.26 81.1629 814.458 81.9084 819.029 81.9084C823.881 81.9084 828.359 80.9765 832.464 79.1129C836.568 77.156 840.3 74.2207 843.659 70.307L858.213 83.7254C853.548 89.4096 847.764 93.7427 840.86 96.7245C834.05 99.7064 826.353 101.197 817.77 101.197ZM1122.61 73.5218V99.52H1145V1.67724H1102.74C1094.15 1.67724 1086.69 3.12158 1080.35 6.01028C1074 8.89897 1069.06 13.0922 1065.51 18.5901C1062.06 23.9947 1060.34 30.5176 1060.34 38.1586C1060.34 45.5201 1061.97 51.8566 1065.23 57.1681C1068.5 62.4795 1073.21 66.533 1079.37 69.3285C1079.92 69.5814 1080.49 69.8228 1081.07 70.0528L1060.62 99.52H1084.55L1101.86 73.5218H1122.61ZM1122.61 55.6305V20.1276H1103.3C1096.86 20.1276 1091.92 21.6185 1088.46 24.6004C1085.11 27.5823 1083.43 32.0085 1083.43 37.8791C1083.43 43.5633 1085.06 47.9429 1088.32 51.0179C1091.59 54.093 1096.39 55.6305 1102.74 55.6305H1122.61ZM261.711 224C253.967 224 246.784 222.742 240.16 220.226C233.629 217.71 227.938 214.169 223.087 209.603C218.329 205.037 214.597 199.679 211.892 193.529C209.28 187.379 207.974 180.67 207.974 173.401C207.974 166.133 209.28 159.424 211.892 153.274C214.597 147.124 218.376 141.766 223.227 137.2C228.078 132.633 233.769 129.093 240.3 126.577C246.83 124.061 253.921 122.803 261.571 122.803C269.314 122.803 276.405 124.061 282.842 126.577C289.372 129.093 295.017 132.633 299.775 137.2C304.626 141.766 308.404 147.124 311.11 153.274C313.815 159.331 315.168 166.04 315.168 173.401C315.168 180.67 313.815 187.425 311.11 193.669C308.404 199.819 304.626 205.177 299.775 209.743C295.017 214.216 289.372 217.71 282.842 220.226C276.405 222.742 269.361 224 261.711 224ZM261.571 204.711C265.956 204.711 269.967 203.966 273.606 202.475C277.337 200.984 280.603 198.84 283.402 196.045C286.2 193.249 288.346 189.941 289.839 186.121C291.425 182.3 292.218 178.061 292.218 173.401C292.218 168.742 291.425 164.502 289.839 160.682C288.346 156.861 286.2 153.553 283.402 150.758C280.696 147.962 277.477 145.819 273.746 144.328C270.014 142.837 265.956 142.092 261.571 142.092C257.186 142.092 253.128 142.837 249.396 144.328C245.758 145.819 242.539 147.962 239.74 150.758C236.941 153.553 234.749 156.861 233.163 160.682C231.67 164.502 230.924 168.742 230.924 173.401C230.924 177.967 231.67 182.207 233.163 186.121C234.749 189.941 236.895 193.249 239.6 196.045C242.399 198.84 245.664 200.984 249.396 202.475C253.128 203.966 257.186 204.711 261.571 204.711ZM796.639 220.366C803.169 222.789 810.213 224 817.77 224C826.353 224 834.05 222.509 840.86 219.527C847.764 216.545 853.548 212.212 858.213 206.528L843.659 193.11C840.3 197.023 836.568 199.959 832.464 201.916C828.359 203.779 823.881 204.711 819.029 204.711C814.458 204.711 810.26 203.966 806.435 202.475C802.61 200.984 799.298 198.84 796.499 196.045C793.7 193.249 791.508 189.941 789.922 186.121C788.429 182.3 787.683 178.061 787.683 173.401C787.683 168.742 788.429 164.502 789.922 160.682C791.508 156.861 793.7 153.553 796.499 150.758C799.298 147.962 802.61 145.819 806.435 144.328C810.26 142.837 814.458 142.092 819.029 142.092C823.881 142.092 828.359 143.07 832.464 145.027C836.568 146.891 840.3 149.733 843.659 153.553L858.213 140.135C853.548 134.451 847.764 130.164 840.86 127.275C834.05 124.294 826.4 122.803 817.91 122.803C810.26 122.803 803.216 124.061 796.779 126.577C790.342 128.999 784.697 132.494 779.846 137.06C775.088 141.626 771.356 146.984 768.651 153.134C766.039 159.284 764.732 166.04 764.732 173.401C764.732 180.763 766.039 187.519 768.651 193.669C771.356 199.819 775.088 205.177 779.846 209.743C784.604 214.309 790.202 217.85 796.639 220.366ZM872.988 222.323V124.48H947.017V142.651H895.519V163.897H940.999V181.508H895.519V204.152H948.836V222.323H872.988ZM967.147 124.48V222.323H1013.61C1026.2 222.323 1035.95 219.62 1042.86 214.216C1049.76 208.811 1053.21 201.263 1053.21 191.572C1053.21 182.161 1050.09 174.985 1043.83 170.047C1037.68 165.108 1028.67 162.639 1016.83 162.639H989.678V142.511H1046.21V124.48H967.147ZM1012.35 205.55H989.678V179.272H1012.35C1024.29 179.272 1030.26 183.558 1030.26 192.131C1030.26 196.511 1028.72 199.865 1025.64 202.195C1022.56 204.431 1018.13 205.55 1012.35 205.55ZM1122.61 196.324V222.323H1145V124.48H1102.74C1094.15 124.48 1086.69 125.924 1080.35 128.813C1074 131.702 1069.06 135.895 1065.51 141.393C1062.06 146.797 1060.34 153.32 1060.34 160.961C1060.34 168.323 1061.97 174.659 1065.23 179.971C1068.5 185.282 1073.21 189.336 1079.37 192.131C1079.92 192.384 1080.49 192.625 1081.07 192.855L1060.62 222.323H1084.55L1101.86 196.324H1122.61ZM1122.61 142.93H1103.3C1096.86 142.93 1091.92 144.421 1088.46 147.403C1085.11 150.385 1083.43 154.811 1083.43 160.682C1083.43 166.366 1085.06 170.746 1088.32 173.821C1091.59 176.896 1096.39 178.433 1102.74 178.433H1122.61V142.93ZM630.962 222.323V124.48H653.493V156.628H678.402C690.251 156.628 699.393 159.284 705.831 164.595C712.268 169.814 715.486 177.688 715.486 188.217C715.486 199.4 711.895 207.879 704.711 213.657C697.621 219.434 687.778 222.323 675.184 222.323H630.962ZM653.493 205.55H673.924C679.708 205.55 684.28 204.105 687.638 201.217C690.997 198.328 692.676 194.135 692.676 188.637C692.676 183.232 690.997 179.365 687.638 177.035C684.373 174.613 679.802 173.401 673.924 173.401H653.493V205.55ZM531.063 124.48V222.323H553.734V195.346H573.465C582.235 195.346 589.792 193.948 596.136 191.153C602.48 188.264 607.378 184.164 610.83 178.853C614.281 173.541 616.007 167.251 616.007 159.983C616.007 152.621 614.281 146.285 610.83 140.973C607.378 135.662 602.48 131.608 596.136 128.813C589.792 125.924 582.235 124.48 573.465 124.48H531.063ZM553.734 176.896H572.206C579.203 176.896 584.427 175.405 587.879 172.423C591.331 169.441 593.057 165.294 593.057 159.983C593.057 154.578 591.331 150.385 587.879 147.403C584.427 144.421 579.203 142.93 572.206 142.93H553.734V176.896ZM436.904 222.323V124.48H510.933V142.651H459.435V163.897H504.915V181.508H459.435V204.152H512.752V222.323H436.904ZM332.632 124.48V222.323H380.911C393.319 222.323 402.742 219.9 409.179 215.054C415.71 210.116 418.975 203.36 418.975 194.787C418.975 186.494 415.943 180.157 409.879 175.777C407.265 173.89 404.191 172.408 400.659 171.334C402.357 170.524 403.938 169.582 405.401 168.509C411.372 164.036 414.357 157.793 414.357 149.779C414.357 141.672 411.185 135.429 404.841 131.049C398.497 126.67 389.634 124.48 378.252 124.48H332.632ZM380.072 205.55H355.162V180.809H380.072C385.296 180.809 389.261 181.834 391.967 183.884C394.672 185.841 396.025 188.87 396.025 192.97C396.025 197.256 394.672 200.425 391.967 202.475C389.261 204.525 385.296 205.55 380.072 205.55ZM376.293 165.015H355.162V141.253H376.293C381.238 141.253 384.97 142.278 387.489 144.328C390.007 146.285 391.267 149.22 391.267 153.134C391.267 157.048 390.007 160.029 387.489 162.079C384.97 164.036 381.238 165.015 376.293 165.015ZM113.565 124.48V222.323H136.235V195.346H155.967C164.737 195.346 172.293 193.948 178.637 191.153C184.981 188.264 189.879 184.164 193.331 178.853C196.783 173.541 198.509 167.251 198.509 159.983C198.509 152.621 196.783 146.285 193.331 140.973C189.879 135.662 184.981 131.608 178.637 128.813C172.293 125.924 164.737 124.48 155.967 124.48H113.565ZM136.235 176.896H154.707C161.704 176.896 166.929 175.405 170.381 172.423C173.833 169.441 175.559 165.294 175.559 159.983C175.559 154.578 173.833 150.385 170.381 147.403C166.929 144.421 161.704 142.93 154.707 142.93H136.235V176.896ZM0 222.323V124.48H89.2821V222.323H66.7516V142.93H22.5304V222.323H0ZM967.147 99.52V1.67724H1046.21V19.7083H989.678V39.8359H1016.83C1028.67 39.8359 1037.68 42.3053 1043.83 47.244C1050.09 52.1827 1053.21 59.3579 1053.21 68.7694C1053.21 78.4605 1049.76 86.0084 1042.86 91.413C1035.95 96.8177 1026.2 99.52 1013.61 99.52H967.147ZM989.678 82.747H1012.35C1018.13 82.747 1022.56 81.6288 1025.64 79.3923C1028.72 77.0628 1030.26 73.7082 1030.26 69.3285C1030.26 60.7556 1024.29 56.4692 1012.35 56.4692H989.678V82.747ZM872.988 1.67724V99.52H948.836V81.3492H895.519V58.7056H940.999V41.0939H895.519V19.848H947.017V1.67724H872.988ZM630.962 1.67724V99.52H675.184C687.778 99.52 697.621 96.6313 704.711 90.8539C711.895 85.0765 715.486 76.5968 715.486 65.4148C715.486 54.8851 712.268 47.0111 705.831 41.7928C699.393 36.4813 690.251 33.8256 678.402 33.8256H653.493V1.67724H630.962ZM673.924 82.747H653.493V50.5986H673.924C679.802 50.5986 684.373 51.81 687.638 54.2328C690.997 56.5624 692.676 60.4295 692.676 65.8341C692.676 71.332 690.997 75.5252 687.638 78.4139C684.28 81.3026 679.708 82.747 673.924 82.747ZM531.063 99.52V1.67724H573.465C582.235 1.67724 589.792 3.12158 596.136 6.01028C602.48 8.80578 607.378 12.8593 610.83 18.1707C614.281 23.4822 616.007 29.8187 616.007 37.1802C616.007 44.4485 614.281 50.7384 610.83 56.0499C607.378 61.3613 602.48 65.4614 596.136 68.3501C589.792 71.1456 582.235 72.5434 573.465 72.5434H553.734V99.52H531.063ZM572.206 54.093H553.734V20.1276H572.206C579.203 20.1276 584.427 21.6185 587.879 24.6004C591.331 27.5823 593.057 31.7755 593.057 37.1802C593.057 42.4916 591.331 46.6383 587.879 49.6202C584.427 52.6021 579.203 54.093 572.206 54.093ZM436.904 1.67724V99.52H512.752V81.3492H459.435V58.7056H504.915V41.0939H459.435V19.848H510.933V1.67724H436.904ZM332.632 99.52V1.67724H378.252C389.634 1.67724 398.497 3.86705 404.841 8.24668C411.185 12.6263 414.357 18.8696 414.357 26.9766C414.357 34.9904 411.372 41.2337 405.401 45.7065C403.938 46.7797 402.357 47.7215 400.659 48.5317C404.191 49.6058 407.265 51.0868 409.879 52.9748C415.943 57.3544 418.975 63.6909 418.975 71.9843C418.975 80.5571 415.71 87.313 409.179 92.2517C402.742 97.0972 393.319 99.52 380.911 99.52H332.632ZM355.162 82.747H380.072C385.296 82.747 389.261 81.7219 391.967 79.6719C394.672 77.6219 396.025 74.4536 396.025 70.1672C396.025 66.0671 394.672 63.0386 391.967 61.0818C389.261 59.0317 385.296 58.0067 380.072 58.0067H355.162V82.747ZM355.162 42.2121H376.293C381.238 42.2121 384.97 41.2337 387.489 39.2768C390.007 37.2268 391.267 34.2449 391.267 30.3312C391.267 26.4175 390.007 23.4822 387.489 21.5253C384.97 19.4753 381.238 18.4503 376.293 18.4503H355.162V42.2121ZM240.16 97.4234C246.784 99.9394 253.967 101.197 261.711 101.197C269.361 101.197 276.405 99.9394 282.842 97.4234C289.372 94.9075 295.017 91.4131 299.775 86.9403C304.626 82.3743 308.404 77.0162 311.11 70.8661C313.815 64.6228 315.168 57.867 315.168 50.5987C315.168 43.2372 313.815 36.528 311.11 30.471C308.404 24.3209 304.626 18.9629 299.775 14.3969C295.017 9.83086 289.372 6.28988 282.842 3.77393C276.405 1.25797 269.314 0 261.571 0C253.921 0 246.83 1.25797 240.3 3.77393C233.769 6.28988 228.078 9.83086 223.227 14.3969C218.376 18.9629 214.597 24.3209 211.892 30.471C209.28 36.6211 207.974 43.3304 207.974 50.5987C207.974 57.867 209.28 64.5762 211.892 70.7263C214.597 76.8764 218.329 82.2345 223.087 86.8005C227.938 91.3665 233.629 94.9075 240.16 97.4234ZM273.606 79.672C269.967 81.1629 265.956 81.9084 261.571 81.9084C257.186 81.9084 253.128 81.1629 249.396 79.672C245.664 78.181 242.399 76.0378 239.6 73.2423C236.895 70.4468 234.749 67.1388 233.163 63.3182C231.67 59.4045 230.924 55.1647 230.924 50.5987C230.924 45.9395 231.67 41.6996 233.163 37.8791C234.749 34.0586 236.941 30.7506 239.74 27.9551C242.539 25.1596 245.758 23.0163 249.396 21.5254C253.128 20.0345 257.186 19.289 261.571 19.289C265.956 19.289 270.014 20.0345 273.746 21.5254C277.477 23.0163 280.696 25.1596 283.402 27.9551C286.2 30.7506 288.346 34.0586 289.839 37.8791C291.425 41.6996 292.218 45.9395 292.218 50.5987C292.218 55.2579 291.425 59.4977 289.839 63.3182C288.346 67.1388 286.2 70.4468 283.402 73.2423C280.603 76.0378 277.337 78.181 273.606 79.672ZM113.565 99.52V1.67724H155.967C164.737 1.67724 172.293 3.12158 178.637 6.01028C184.981 8.80578 189.879 12.8593 193.331 18.1707C196.783 23.4822 198.509 29.8187 198.509 37.1802C198.509 44.4485 196.783 50.7384 193.331 56.0499C189.879 61.3613 184.981 65.4614 178.637 68.3501C172.293 71.1456 164.737 72.5434 155.967 72.5434H136.235V99.52H113.565ZM154.707 54.093H136.235V20.1276H154.707C161.704 20.1276 166.929 21.6185 170.381 24.6004C173.833 27.5823 175.559 31.7755 175.559 37.1802C175.559 42.4916 173.833 46.6383 170.381 49.6202C166.929 52.6021 161.704 54.093 154.707 54.093ZM0 1.67724V99.52H22.5304V20.1276H66.7516V99.52H89.2821V1.67724H0Z" fill="white" fill-opacity="0.05"/>
</svg>
